<mxfile host="app.diagrams.net" agent="Mozilla/5.0 (Windows NT 10.0; Win64; x64) AppleWebKit/537.36 (KHTML, like Gecko) Chrome/139.0.0.0 Safari/537.36" version="28.1.1">
  <diagram name="페이지-1" id="woMJpXa_u7Dt6uM8lxKJ">
    <mxGraphModel grid="1" page="1" gridSize="10" guides="1" tooltips="1" connect="1" arrows="1" fold="1" pageScale="1" pageWidth="827" pageHeight="1169" math="0" shadow="0">
      <root>
        <mxCell id="0" />
        <mxCell id="1" parent="0" />
        <mxCell id="ExaBrOYuSmW5HMcTSUmC-1" value="" style="shape=image;verticalLabelPosition=bottom;labelBackgroundColor=default;verticalAlign=top;aspect=fixed;imageAspect=0;image=data:image/jpeg,/9j/4AAQSkZJRgABAgAAAQABAAD/7QCcUGhvdG9zaG9wIDMuMAA4QklNBAQAAAAAAIAcAigAYkZCTUQwMTAwMGFhNTAxMDAwMGUyMDYwMDAwN2MwZDAwMDAwNzEwMDAwMDNmMTIwMDAwZjMxZTAwMDAxYjJhMDAwMGJkMmIwMDAwOGQyZDAwMDAxMTJmMDAwMDc4NDEwMDAwHAJnABRmaU15UjcxRU93MkZGQWJlQnRteP/bAEMABQQEBQQDBQUEBQYGBQYIDgkIBwcIEQwNCg4UERUUExETExYYHxsWFx4XExMbJRweICEjIyMVGiYpJiIpHyIjIv/bAEMBBgYGCAcIEAkJECIWExYiIiIiIiIiIiIiIiIiIiIiIiIiIiIiIiIiIiIiIiIiIiIiIiIiIiIiIiIiIiIiIiIiIv/CABEIAWABYAMAIgABEQECEQH/xAAcAAEAAgMBAQEAAAAAAAAAAAAAAQUEBgcDAgj/xAAaAQEAAgMBAAAAAAAAAAAAAAAAAQUDBAYC/8QAGgEBAAIDAQAAAAAAAAAAAAAAAAEFAwQGAv/aAAwDAAABEQIRAAAB+R1nBgAAAAAAAAAAAAAAJjCwbedi7Vd1tvzbL6TrctdVVpYVAbGoAAAAAAAAAAAAAAAABXdR0Coq7zvk6Ru1PfyE4nH+1VPvHzCKu16TjoGXAAAAAAAAAAAAAAAABKJiaraqqjrbr9BImm6FEwcQyqm2vOZgWFSAAAAAAAAAAAAAAAABNHeeWlY9gy4UHV65o2PG/V4GcXXNh7xgAAAAAAAAACImZqvfX3M5g+PjJaPK1xZ69aV0T8Knxz6t28fbY1MbedT6/RdTOg67hGJawvOYDJhAAAAAAAAJ+In6mp9cG3Yviy19qi27crOru8LMmdfbhIiUDVKLZzU/HqcHIvfb9XnzhXm2cSyY87OmOj44MmIAAAAAAAAYuDa+dx3TNoeoxcmZwbMSJAAAaltvOTab0AGgb/4lPq+5WMxxPIxcvoeSgbWiAAEE4uFg27dj22vuVeNvNrrbnP5s2XBWI1zNrXG9a3vNZdbFPO41N/oscwzTob4+wAABzrovNDpYBBIAND1HrnELCqthecwAAr3Z6Xo9e276mtuPn6EkA1LTZ89G59oPXDM+522PUSEVtmOP9eoKQ3wAADEywBTfnTvvFju9zU2wBHH+wcoyYcAdPxISAuum8b7HyndyIlDR0UlD42VrR0l2+bCp8NtqbHnuu6OMeUACK6yAAAAAEJAAEck63yrJirh0/EhMAav+jeF+ND1XevjjVPhz73pFhkWdNAsaeaW5rdXe7RpHR+b8713SQIfmo/Ss8h68AAAAEUhePy9+nD1AAII4puOk7tdli/5QACYmImUJAgCcbJ1vRtP0V8zND1AEcK7tBpO7gAB81n5804/Yur/mT1On8yn9OnJe+fH2AECK/Xua5sH3aF/ykDPqgAAAAAK+wY8u5brxLtfM9p9Dz7AAAA0TXOvDXLfLkrbKPg9GrQbT8820GfHWdKw8u2o8CwhZU4e8QAAAAAAAFR0/R6ervO/TxrotTe7Ah59ygSQSgTFVqhvdByn08b+/6H7UMZ8bqdV1b3XYnMus6X6w6V9YWd0/EwMmIAAAAAAAABMIKDYIxbHptWo4dbcdAjnnp4yb7R6f13TsdN8et/WLP+dfL9HRHr8/z39GxxPp979TrfP0TDUNv045vZ1dn03GBm1gAAAAAAAABJAAEvjz7zOuaHvnMdrI8ZAAACJg1jZ8aXC7esXnM2Q36kJAAAAAACYROBYau/5emu36fobdfJV4s9pT3O31V7uHsVtwAAAEAAPjTN1I/Pt707jFpTXCYuedAAAAAAmvzNrr7a3x9t5BT9DVWKOk42UY2PNh9czLOg6mPqJxbAQEEoEgEABW0BuKA5h0+jmOZelZadPxcDLgAAAAAqu5cc7XQdU5T1ao1d7mUYmDfcvldj0jpNL0KTX2wFdYYcvf21HbYSgTFHekRiaUdBINXrMPapXpEHh7eJwLYaC/6TkIGzpAAAAAeXaeIX1H1HU5pLmvtHNehcdOwZnh6w+kJS+UJQloe+826TAQcn6zyzqcnNOk82Ol/Mwct6lx23mOlOS4c+ezadpFLMWOd4+/S8bAyYQAAAAES8+qv4t2HZpc3OTGFZeUau9lMZ68WWZQxjy3+LVCo7byel19v9AeXEa/V36K5vPe2oNcyrquj13PX+Ofdbb+WxRNxz8obOnKJIE+QAAAAAAAAAAAAEwJETAmAAAAAAAAAP/EADEQAAEEAQIFBAECBQUAAAAAAAMBAgQFBgAREBMgMEASFBVQFiQxByEmNTYiIyU0YP/aAAgBAAABBQL6N8gQ9JLjuRHI5Pp4gZluRMQhbix2sC8lLXEbIxYW5ll1hkX1J9JOVyQaQwTUvQYA5AbKudSG+lQRoEmpyCPYJ0WEJthXw3uRPpZUEclKK6epui6kDXLPppy8kqftx9fusg+mtNvYxWPHD1aXEepZLv5c1IsZsUX01cD3+R631elQ+U/TnMgAY7Xuh1++p2TRAiiR1GnlKqNR0+OmlfLVSfID1zpi6DAuZWkxeYRiYtJapqa4jrzZ2ksxeppWE1+yVFX8qbVzMNYWYgCCnlKZ5CxsaR+o8UEUfTvqbfwYRHz7+UpbS0AKIDGrBZeLmYOsszUjJ+TxgaiicMPjK5GothHRUkEdpItqQY8cnnfCgAr43XOlyLexrqaLWM4WdHGsx1VgeBYzYIbCHFCsGb4w3Gmni4yPcIBAZ2shmOh09VXtra7oymFz6qpnfIVeSwHPGAqHD4gAvtZ8aKKKDuXP6nI+kg2lHDgArw7amRvibvukI0QxywF6ZJkjx8cge0rO6Zv9fdjKho+gY5Hj7BTjC1kk5mtgXRkZjc82gYrACY1BWn07EXNe7GJiNJU3MUbbPlvqal9k+xt41a3nX89i0VmXRay8h6jZG0b2uRzexLJ7POOxJjtlRYzXxJXXHG+4sYmOV8XW2tunfU+yjVoKYDb2dZ2bwnrKMcEnGZBBPBHJIxuz37BIwjE4WUxIFa69snyaub8hVdF6Pk5P1RwEubGLFHDi9G+t9Wl/FrHOzAysljk2E0qBxejqax8VOm4gNsazGJ6zKntXla60q24paONXQkr67oydyPturDmt+J6N9WeSk9y2/uUFGg8omqxrjZhNT32V9W2o8EEQng5GP0ZB1YhM5ZeO+sitUgwoUdI8bgv8kxWKry4+nurLycq/1WHUr/jb/g97RsnZQEbgxnrI42ZVHDhxkhwMPb6Kro38Web3uT9UqK2SKJPuK1jrq7kNJFkTDDCMKdChWVd6onuj3nG/ty2FjiFkU3bnWkSvZIvbCTLH6+T1ZFZuix4wEjx+/CX+r9bdFlis0lpRUKVDOlXImg2MOQR72jZKyOsitn5kYjiFJJPS4xIObqlyxQo3OLZWXgGdy7/uZHLPJu9Na57iBIF8eOWUetqY9aDp31Z3oIYnslTz+DNChomNTPd0XbtsaBaSR4QxFrqaLVtPFBJaCDGir0K5ESZkMGM0ttaTkjRBxW+HQHSuvt/Ac9rGEyGrE/8AIaz28jKWkethIujhjiAnizgPIyluG2sbfuPIwbHXtYwkrJ64A5SzLd1iyPGZXYxCDEDHFHZlsJrGIvqTxnxiilNyG1BqrtQWkTfq31volnCE+VlleFhiS7snxsTTAAioeyIU1DjpASOGUf41EX1Q/INAVDRMmlRFHlVW8f5PUa/KKnZ2U1TWEzOGjP8An7hfwtSGNiVkzQI02Eb3s0mmrcFWNjdjNJAqYlczbjkv+NwF3geT+6LFA5fZR9JFA3RorSGrKaNVi247a21trbpyb/Gq9d6/zaJnPyHuX/8APH63+3eY96DZi0dzKjuHC2RHkVdjTLHmik+Kj2q7qN+tljG0Q+9ZY5EsFUkitmeCaWIOotVYz1sIoB2qJs3i+Z/vhx+zmLX41ErpngT4AbGKFpYM/vmUpS1lNGrhXVs2tjxAcgXF6nmyK2qBWR/DymKrUG9CD7r3egeOQkZF1crzcp4xo5reVDghgx+/NM6NXY9ZGta7jbIi0kD/AKHdsHO9mASAjavmcm94FaWUeHEHBidM2WODDGRpg9nIDKDH8TCgse4mE08eoXeF3WD51zwsa9ljCOCwrdJZAV2Lx/UzqlASTDxwqmx3itrGS41JG8sTFJR5VTwzFdqOmCgKPiUrQhqWq2D3Rl5N30ZcZzYEcDY0broV5UziIXO/iNwwz+y8M0Inxv7dGSSva0EJnog92SHnig5KoNMtoBE30U4gDya0jlksI0g9+t/6HOeNPufMeGNvQE3hmJRrKdmMPb8uMRv5PappMnt1WxnWls0TVYDvORHI+vjv0kJw2pVgV7oolDFtLWAFt9b7fMW7tLdW7dJkkwbW5Qi6XJ10/JJjmWUudNbFlMlxNEI0QokH3jPho+vhwagPZSXerC3h1rFK64t0RET6ByepoR2EEizr5NHW2sGBE0AuEuMkoPotl0CsENURET/0v//EACwRAAIBAgUCBAYDAAAAAAAAAAECAwAEBRESITATMRAgQVEUFSIyQEIjM2H/2gAIAQIRAT8B/AtbR7g5LS4Mn7GnwdcvpNXNpJbn6vw8Luo4x028ZI1kXSauIjDIVP4eG3j6um3bxxZgZsvw8MiLzg+3hfXxt/pWpJGkbU3IFJ2FJYTt6UcMuPakwiU/cabB5PQ02HXC+lGJwciKsLX4dP8ATV1fpb7etTzNM+o8QUntS2Nw361HhMrfdtVvZxwDYeYqpqeQxRlgKllMrljxWts1w+moLSOAbDiIzGRq+tuhJ/nlisppN1FJhEp70uDplud6bBm9Gp8LnXtvVha/Dpv3PJisJeLUPTyWGHhP5JPIWAoMGGY5ZwDGwPkHbxmxbS5CinnknfNjUC6IwOWXdDR7+NleI8YDHepLyFO5q7xQyfSnbww5NdwObEbgRRafU8GE/wB/LNcJCM2NXVybh9R4IZOm4YUjB1DDidgi6jU+LntGKklaU5seLDr4KOnJSyK/2nzQ4fLIM6FrFbbymp5BI2Yo7jKphpkI5ILmSE5qajxhf3FfOIvaoJusmvLwRyhzFG9mPrTMzHMnxu/7m5kXUwFRJoQL57+ylDlx24rfD5Zt+1XtotuQAfCGCSY5IKtMM6Ta3PDiNiCOqnBhlqJW1t2FSv04yfapZWlbUatbVrhshVvbrAmleIjMZGrhQshA8+FoFgBqVOohWpMOmRsgKtLcQRgcl/l8Q3nwydWi0evJnXUX3oyoPWrhtUrHzhiO1Lezr2ajeTE5lq+cS5dq+bzUMZfLcV84f2q0xJZM+ptXxUOWeqrjEpS/8Z2q1xKQSDqHapMQgQZ551d3rTvmNhWo1n+Bnx//xAArEQACAQMCBQMEAwEAAAAAAAABAgMABBESMAUgITFBEBMiFTNAURQyQlL/2gAIAQERAT8B/AnuFhHWjxI+BS8SP+hUNwkvb8O+t2f5Cj09I3KHIqKT3EB/DvbZdOsevD1Ij/DvZAsXpaWglGWpECjA3CQKa6iXzX82Gm4ig7UOIoe4pbyJvNCRT5q8uPdarezaXr4qOMRrgbRIHejdRDzT38a9qmuXlPMGYeahjEj4NRoEXSNqeYRLmpbh5DtA4PSrWb3Uzyvcxp3NNxFB2o8SbPQUOJL5FJfRGruf3W6bnD5dL6eS7vM/FOQKT2oqV77sP3ByHv6xcPBXLUkSRL0FTNqcndi/uKHrdWrK/SktZW7CrexCfJu/pdvpiO9ZQ631bF/9rdihaU9KghES42JEDqQaddDY2lUscCouHgdXpEVBgbV5aFvmtMjL35i1ZJoDFKcHNRnKDclhSUYan4b/AMmvpr/upYvabT66RyQfbG8x0jNSNqfPPa3KFQu1NeJFVtcGbx6SSrGMtVxfaxpXYzVldnOhti+n9tdIqNfccCo0Ea4FTzrEMmp5mlbJ2lJBzUJygPPftmXFRvoYNSXkTDOauZjK+5a59oc99Ewk1bmDXtt+qET/AKqIYQDnIBpraM+KFvGBjFfTkz3r6fFR4an7r6an7q4sSv8ASv40ue1Q2aBfkKnskKfAUllKx7VBbLEuKxWPy//EAEgQAAECAwMFCwgIBQQDAAAAAAECAwAEERIhMQUTIkFRECAjMDJAYXGRsfAUM0JSgaHB0SQ0Q1BTYnLxFWOCsuFgkqPic3TS/9oACAEAAAY/AvuM23EimqsXPI9piqSCNo+6CJMZmXSdJ9fwiqn5pW3TF/ui0mUST+clXfFFSTFPyop3QV5OeXLL9XlJgN5URonkvIvBiowP3K4UY0iV8nUCEICVU1Gl+9U08kLbVikwHWVWpFxVLJ+zP3LfHlWTVWXNbepQhLTtGZvW2dfVvXpZw2QsY7NkKl3xZfYNlQ+5ieS760fw/KauHFzTp9Po696kMA2kpCHbsT47vueVmRSrLoN/bvcoPqoSlyynqw+H3PQi8nRhhDyrTqUAKVtNNxszGcUXDopQIzeTmVMIUL3XMfZFlJrXE/c7d1WZPTV+rV7+7dYaraSy3enYrH/5+6FLVqguPpImZk23K4jYPG3ccTJKz8zWylIBpXb1Qpx69901Wed1UaCKBdpVaUSMYo3k2cJO1siNLJcx/Tpd0XZNm7WzNn5Roy7cug4F4+O6AXspWF6whu7vEV/iyva1/wBoq2pmaTXDknx7YvyXNf7D8osuhbStYUI0FpV1HcE9N/VUq4Jo+nTbuOSTLliUYucKFcs7I4NAHTS/neZkmlPv7E4Dri3lV3PK/DbNlAixLNIbTsSN/mysvPVpmmRaMWpPJ4Za/m8r3kQtOVckpeYOObw9uMWGUlt1WCVLUD30g/wybNCKFt+/sMMZPyvLFpv7N4G7HX2wpqS+kzFNGxeivXHCEl1ZtLJNanm9VEAdMUC7StiRjFESU2rqagFvJ1K61uAe6Ppk2201sYxMBmVRZTr2q6+IXk3JqrDCPrEwNXRH0dGmcXFco7qraQh7U6kX/wCYOScqrqfsXDr2QpiZTVBw2jpETEi8kZxo8sekOblnJzecWnlLPJTGcyk6Zpz1cECLLDaG07EJpxbhZJDzpzbdNphthNLWK1D0jvTMIqH5bSBGzX8/ZDL9dMii/wBWuEZQlhw8vyhtRCVp1818kZKgym991OobIDUu2ltA1DjckyeoEuqHjqO+U2sAoWKKB1wWpRFhBNqlSb9xTIFJWZ0mug7PHRxxUs0AjRcTXYd6pZ9kB1wHPzOmuvu45jX9Gr1Y8S4s4tLSodtPjCVJwIrxNXFARbYkJlxs4KSgmsW25VLaTgFqFYPlc822NjIrXugLXnX6ei6q6Bbk2xT8PQ7o+jZSdbb1JKa/GODynU7C1T4xa4CZp6KDfCm5xpTTidREIncoJpLC9lk+l0no8dfCqtPHkso5RjgGWZFO1y9UWncuPBWxCaDvi3J5RMzT0HP81jMZXZVKvjE00TAUk1ScCOJlXHPNzDWbBprr+3bxLrLnJcSUmkPyD5qtg3HaPHfxAlmCoSyL3nUxUtZ5XrPaXuw4jOTLlPVTrV1RMZVn0JUgHNtMnSCbvHvhElk9IcnntuCBtMGYeWZidXep5fw3mamkWk6tohMrMErye6qiVnV418S2t1tC1NmqCock7r8yRWwLhtOqM95Y7aryQdHswhiZpQrTeOnA71hwCiX2qE7SK/436pVtRbl2r3VjuhthgUbQLt/m12nH/wANGrrg5vJxBpokuV+ES5m3bU1MqCRdcgQvyUKcUpeiHDio/tDkzNqDk/MXuL2dA3zrJFV8pv8AVqhLbnnJeiD1auLUw2QHahSCo3V8ViyWUpTXllYp84ZlkmubGO3e5MaQeERaWR0XfI795fpqeNTToG+clMlNhSxol5WAPQI8nzaC7fwxT4EF19WdfVeVHcZs3hhBKuqn+Yk5WozUqjPqHTq+HEPLl2wgvG0ums8ykXlHRcQUeP8Adv5iQcoCTnEdx+Hv3pZYV9LfuQBiketCU+kb1bpMTWUHLg5oN12a/h74yrPk2rbubQfyjwOdZKSMQpR7t/LzQNEWqqu1el7t0qWQlIvJOqC1k5HlL230B84VMzis5MrvJO8ITyl6MMy6KUbSBUClemJlGtMyoe4c6ecTe3LJzaSNuv47+ybiMDGaQUvNAUSly+nxgBIYl7+WlPzrAXlCaW90RwaQne5PYFKW7RrsF57tzK0mtBHCl1Oylf23jqAs+TNqohIw64elH1ldkW0FRrTxdxZ8pdSlVKhGswHvKFoIOilBoBCM7S3TSpt36ZaVP0qYuBHojbAbHt6eYSI/Kr+1W+eXKBCmXF2gSqlmsKWpzOTDgorYOrfXmkFDEy0tY1JVBUtQSkYkxfMpcOpLWlWLOT2w0n113qgrdUpx1eJN5MNPzyc0wk1sK5St+t+YVZQn3wqefTYFLLSdg5jk9xdEthxOkcOVfxr7b50GVFKEbBuBKAVKOoRZebWhWxQpCWpdBccVqAhAabTnbNFOazv7MqpExNKNEtoNadcB3KbtunJbTgnmSwRU0qIatctjgj7MPdTjC+HFMvEUJAqDHCzqlD8rdI+jI0zi4q9RgCYZbdAwC01gmWYabJxKU03tThHBuCYd9FDOl74KRZk2T6vLp1xRAv1q5o7LOUDc3yT06vj7uYlSyEpSKknVFlU4gn8tVd0B0zaLJNKel2YwprJEs7NuY1smg9mMKTOTJbTdwDdyTHBIA6ebJcYNHWjaSRBtCxMN+cR8RxpW4oJQMVE3RYM61WlbjUdsVbdz69SWxFudcLTFapl06uvpjNMNIzi/aRDBm2EuTIvUSTSvVhFiXaQ0nYhNIZn2hR0LsrIGOw+NsAjA838okHiy9rprhPlEs06hI0im4nx1RnGblpuW2cUniVJdm5dKk4pLgrHAKW+vUEpp3xbnSW5WtW2Ux5n3mKpSlH5jAZycguLPqpqfYI8synQujkNk1ofW3Zv+n+4Q1+kc5z0m4WXvymkZvKzBcH4rYFflAUt5TZPorbNR2R9b/wCNXyj61/xq+UEiYKj6obVBLMu+peoKoB3wBQZOlq1rgule3ui2/lFa6mquDvPtrBzaEOaRFy76bYNrJLpUm6qUKPvvhQayc+VjHRJp7osJye4CdZbI74rlR3MtVvQDUn4CPorQCiL3Deo7ybrsH9whrq53e0jsjzSYuaR2Q3KyrKM/MGg6OmBmU1epRTpxPGTf9P8AcIa6ufTDtAUy7VkHYT4PGzn6Ia8a+elSsEisF5zlTDhXhfTx38a405yHElJ6jBzSPKZWuKBePlGiaK9U81shQrs38vJNHz6tIp1CEobFEJFANg49TieAmD9ojX1iDK5SBx0HNvMsbS8AhOJgKe+iMbDyzBlcm2jm7lrUut8AE16d5mJdtbz2pKBFZx5Mqj1U6R8e2EzDa3VuJF1si73cxUzMpqk4HWk7YdkJpVVI5Cto5gmVkxamHNmobYTYSFv00njiYso05tzzaPjGne4q9R3iZTJ2k4eUrUkRYYGkeWs4q5ozlFrlM6K/0+O+ErTgrjlKOoVjy50Vfmb6+qnUNwA/ZMDx794tlg2JZHnXae4QGpZASnXtPXzCZeRS002pYr0CFvTASFpdKdD2fPeT1R9gvHqhrq44pQKqWQkQ20jktpCRuS758281m69Nd1uTlfOu4n1U7YQwwKJSO3p3zkw8FFCMbIqYQ42aoWKg8VOKGtFntu+MNqGLq1LPbT4bxxpzkuJKTHUrjsnJ/m2uy/dUw7drSr1TtizNMF5FPPM1IgDTTXamJmeWPPqst19UePdv3mSaB1BTXriUKsUgp7DTeDJ9VZ8ptYXdXZuPIZVZcUghKq4GHPKXFOFDpSFLNTgN1PS8AewxJISKcECes3neLdc5DYKiYqfSVXjsnK/mWe27esSzfLmHKez96Q0y3yG0hI4jKsnSmamCsdSv23j6wrzKLXXoAfHdf/8AYPcndlmvSW7a7B/nev0NFO8GPbj7qwyPy146gUUqF6T0wGcroKT+MkVB6xCbE7L6WAzgruW33Eto9ZZoIklSbodclV2tHDV8oStBqlQqDt4hLizwc83ZHWP2HbvMqzCRoI4M366/9Tu5Wkrglt+0ga9nwG7INFR0arXQYAkfIwc2xMlXSkD4wUsZOOd1VXUd0fUG6/pVH1Jr/Yr5whh9ltCEqtaAxhCTilIHH0UKjpjkU6ooxMvtp2BcWl21HXaVjCmwgAKEJlm2mnkI5KljV2xRUtLk7fBgH6InosmLkSaugBXzjhsnBatrbkfUJnpwi7J8x2wczk4A6it34Q0+82025LGrZRj4uhp9rkuJr1bi3HDRCBVR6IU6t0iqr+mMXO2LlLhhwHgHhm1lRw8XbhMw6Lf4SL1H2QuceQQ0LkpJqB0Rd9wkHA4wo5PmyhBNbJ+UWhNpJ2WE/KLE7M8HrThX2CA2itBt3bJNDiDF+UXaf+VUWneFV0xQDs/1N//EACoQAQABAwIEBgMBAQEAAAAAAAERACExQVFhcYGRECAwobHwQFDB0eHx/9oACAEAAAE/If0Xer2vUu7VMOhT5rjWEkoP09ikgM6Juf8AMk0qeFkMNHL++9klLiFsPvCi6GKZejf3eVQpVgmX9tZtiiN5uCX/AEs+vC9/aoq6ixEQTeb8ZnWh8hK5gsjTbpdeU46mfh3eX6SBEwbRRKFN6+sI+8IpUcBNnxueWfmp4eMUwGHCTIZXcGr9sPm1q1/SwB2D/aNJ5YtE+x155MeKTWDqoBeZ4wJ+maWqHyJaW5dwt5CauOoYxCR7GsfpdKc6E5Df/wAmgpF82IS9/AoUwGrGW6Gp3pZZkftYNd+lSiJSmr+nbFa7Y2La2N99GPAYcwCzT3R8P0F/CfCPJiqFh1ag/IDAf+jzVcVe/TxUcPJnrNNjOa+Vlp/KYgC6rFKSrQ5VwoJgBG94qXccj8DUSHDNFdRKbqdCWaSb3PI5P8KjhXm0ifMQopvePlUc4e0NCwdNjqatGY2lJFtvSsMcU3LuiJ732virVAXGxKuWI4PABRBEQEjn+RHin2zuqtKLFbs7CFe3WhcU6Gee/NqKC1RUeDCgCJqJ22nhM1dNlhAuf8FWEQO8GsLfiiFu8uuEyPC9Bq3xQRLwFnBjrTA1MA3SwtbZi1qZO5mw4g33tO0lXHolhc3/AB241lUBTRUkDV5KdlTgS9JGN5BuchK0DBZ3cJQi3PlQCBusputWoqPLNRyzAJ4j8cb6DSQmLGf8DgVFRUkbNMc9nB9qv4EH9CdR01m21ZsnRl0TRPtqBBxDij7jwrX8adfgtzdV7++agrCJNxcBn44VwVZD2Kio9EePGz/hYalwG0Zcv88oT0dfuKAQ5goRAtZpf2qWgOp2uEryXhS52NzMO34oILQHIHFx14NaGgvhEu7xzUVHpxeW/TMXPtr5lNsxQclX6erpAJvyKZV22la23Omz6zUTJajLxqQ0MkmG9JHjlMCzjRxox1pePCz3Wpqamp9KR1hP2P3n6J2apYf8VWBJD0VkU0m/ahuF+nYUDDw2MeGTrFDiQ2TFrK2e9OHpBM94Ank2pt3PF3dbPWkF6zJy24D2pjwGG7yqwYZLtjNw/wBrVAxonBNKmIr6X5NeVIbx4J8W0ONXHJxZukPuFICllfsH4pKz17C9IHuVrkQt4m4e3Gh9llEiejBtu7ZegOvjTU+WWIccgSJONfx8DL7j51iZ0q3T08Gw8cHVi1bse7d9Nq4vKnwMDTFG7mg1ycL1KwzdiMjZs91QWozrWPr/AN4pICEwuYafeVR4JNPg51MJuOlTq5LabmdEmzqUBLX4mvoRQxVXcNvHb5NyWHdKlgYkh8n2muDfqLVg4SMeVfqWuNPPJWUHK6Q0lv2W8RVsrQm/F96C3mE6oJL7ZZ2fPCpUCp4TopCTrT2S0wmgWOaxwcrVoecymjQ0MDbrThg1sNOEfcHmgcI3Igj/AMPBoAkxvMP5t0ox6QLIwADeODQrbVNc0D8Kgl4V6m77r5e+wCMPPRvCRnWgJ6vfzJk3yVwPIdW1mzmiCspu4cNsi+m3U0RErN9+fGrVFG65wmfJq/VCzvgd+xaMHmZVehNDHI09NKjzWKAvMX/HnJ/zCJZ9uyk28Jrkqy45pkWbMcOO8NQssyO8YqfBDjAEzR5KLSJlK5SDOlLERftNPbRj8jWtQWRsTf7PbzzcRWJXWEcz3oamhPnJwDekuXiNlvec3Riya0+9uwP3bl5MiDDr9963dDSReHFv1r62D/nkmoenNT6E3iiZxmsaHd7fPvZUWGimE4B4MnRMVxAoLyu+FECRUnALsYOlRjlh5b2zHTf+AqC1TDtKMlncfdRjwmpMIvQotLdadz/oCQSesOtGPRmmCc87llezwHHBnrM1wg9iy/lmppe5dGHX+QdXSsuhlu19H7Pnn0RUGKyU8YpyNgGoRODtUecUCOHuvrwLFY8oMkN1is7ZCrWWNTgKQsTm59Rbu0u2ZZOmD3ppgXcioYsx2w4jQ53ox5ZvRce7Wxxas7fWWL9XvUeefRzKXaIGRofUWTDbG5zbP/nhbIgDK1x9V12aXLEErrUdfMe/lvtOnKkjxmpqFMEkMymWOA217pbrum4UfedafgwKG4yJT3iSWMwLOrqn1BCisgYU3i2dqe2rYJ+601ulHvxtwKupiDj3rH7U08J28k3pAkDK6UiFWVdzFj5o6WcteBxdBq4Q8hdp/DhaIn0Mou8RzoeqmpqanXkOAaq1x0oQ7hKjKICK5bbMbURNFmI3hddi8UqqQJj98yDeay0M5L+M6icCG17dim6yzSnTgPt2Xi9OavI9CB1pyibnti1TIIXS/NbHzThK0IPlzb6YoTKUN+1cTNDbU36IukGMXirtFmEZ3tUJesaJc5RHRsUbqQkfx+NN2C+b8LYw0/q2G3zMoU3VRv8AqNnXuFJqanwmoVCYpMrQHHSaSN5CwHSWFuU0elu4bQX1eLuxE1Yw+3GnpYZdDTLWDvCrOehf3oeLS5D5OJtbO+fEVeWm17fkdKhvmFsswmKXC2BnzLLTbGtZuHM8yCe/hMikTGhfoWTbo9yPejMbAd1FHalmUKFcRDuCdC0yuZl92d+N6kxsQAQbXWvzoxC3LmFwdq0HDHqgUx4+HzrZStp2Hi4BwTe/JqBRs2py9Jgg4eRDZUjveDsv5E7eDECWc1MJlZf86Ynaa6udMkIOq2g22aLiaL8/kcDbrXB4R5AQ8u5i1AkmJfL+d1t+i+YD6th49Jr2b8vzdY4KBIvmzQJ7LSPUEaYTdCGhRMZqHEL4ZxVv6SrWfw4pUqchuebFSk6EiKOewL0oDpZ9AseslCDLlGy9z2eNSbGTcO86nxWcfgRVgZDkU2qUh3BY4GnWKlMic2fKPmmmCES18SiZp6hek11YvuNmI+ikjYJ4SRNhpPej8DL0BcgONLsbqYrR0/tPrqosfdLhSI4sMprGxwPeoUwMc8JcPltT3Tcpm8zT4Rathg/VLpVzO/l3HhwoI9aanyF/f56be6lcCEJ6wXEN2FZiEFu2O09qKiHAgm83WeH+PHFIVtRun6fclxGWrutWo9cx0UCyo3q0P4oIhH1t5I1m5AnXVut/01r6oIASMs6V7e1YR4ObDpGm/RPfxOrdbGsvv8q3KadXquL5oWlxzCH9qOIO+Ek88+Juk5vGP2o7Syho/wCJqY8buRjwSKVx1Q7FPqzusGD7aeKfXMMlPA+4WkA82C42zzpymgalRJVDfhc23mTXIXDoRTly1viQHYPI67HRsTdvl4YrH8kEGedLlr4hJC63deXi5xI70P5SoLOdA+Ra5+GtL5GxICWowWQfH8rX1Zrwvt/7qfGKwTuwJRDHCkCo5Ah6B7lp5QfWfI4wEvsf3p46jxYUFtUcUfjQAgICwVO9F/DTw7cz/wAFAJZs7r/31rrji6DWoYqQdOD+U0JskLsWahaKQA2Q95pcVG3ZovhvoqBdxtDholipqampqampRhPFtEEVR8Firdgs0myHSiakqYjKTcKp7d3wkozyySIgeNHBzAJ6yplzNSHFIfNRAUGUifeoDnxIUmDgDgogVVxenXFBHA9eHptBNBMlOriuIOtHslSGlyrnNSnoCxLzmimDCCmgnRReJ5JU078/70sQ9EEHCxO0ND6uiLGil86yCkbfR94HzRQsstym66im6kw1lqPExU1PnlugLvalwQiJ3TW52n+UkkHe5/lXMhwCpfkXdGpi1IYmLhKvyHFtQ6QIcAtd1ebQAABiCj8fl6I3WEDelMkkyK6qEnjR8vaP6UsnTswLpuMPWp3HfeNtxbCabTROFSFVWZqLABgEB+jjwx+rmp/F/9oADAMAAAERAhEAABDzzzzzzzzzzzzzzzy0pij3zzzzzzzzzzzzzzzzz1vzlHzzzzzzzzzzzzzzzzzotyQvzzzzzzzzzzzz3zzzzwNyP3zzzzzzzzzz3mZAAk/mzX3zzzzzzzzzGicZhxyCTu7fzzzzzz3zz2dlzzzyhzyyRjzzz+cmR48OBDTzzyzzTzzn3zz9nzDPvxwzTTzzzzRTz/fzyTCONflTzwzzzzzzzzz37zwK1L0kzThjzzzyhjzzQD3zxazzxQDyyzzxwjyzDiSnzzzzzzz+XTzzzwyjhQv3zzzzzzzzzx5zzzTDUqF0Trzzzzzzzzzy/d4tVwe/syw3zzzzzzzzzznzyETzzzzqi/8A88888887lu9KFU888yCSjO1888888KcFM/8AEpvghviismvPPPPPL6He9giDjkEliBrwfPPPPPECCLqCrOgECMNdwmfPPPPPLroZcZTObN1kzzSvPPPPPPPPPPPPPLQvPPfPPPPPPP/EACURAQACAgEDBAMBAQAAAAAAAAEAESExQRAwUSBhcZFAgaHR4f/aAAgBAhEBPxD8BJgDbCOVjcu/eUAWPMqvwlGJXcEcnRgNjOEL8IalS9rXt1NEyGfw+FGXR0K1jtrXt1GaLZq2fME4/qZwD+whZP8AIbefxLcBmVfc9vaNc5RPvtN0LYJYo9kD7m2T5dw9G8TYFy8JU3RvaADXLKpm88z27IMGGMobZPQC4ITZqJZh/YGrxYxfU1g+E+1H+dwFsz/UetIFvB4gBo67BqbgHd8TDHfWmnRQLYxMhp95vwZafB3SDfDMF1PoDzMuMDcflz0ELoz9d5UPBHL1FNRV56038Pde/pR7o4OwiDTNYCdpRpJcf2mZrntX6o4YVYPx6QVomF6+YBmPiUlogsXMrLhe37zA9FGUfaPA4QCg66cgZgsSZQuuJe/ecnmAVwesDrTxETD2KXEoKU8ssQvjpnMlRYTjsbwxaNJs7H/cgwKvAjN9zXUNsLB8vntG2hml4X1+QkFHmZoDyQqmefnts0Gr9YW1DjpfntINynFPuHZP3Ms3a+tm1U3pASGoYFIC8QlBuLaMADFxKsT7iPDwgB76fVESwLBdtWXdvfuW7f8A/8QAIhEBAAIBBQEBAQADAAAAAAAAAQARMRAhMEFRIEBxYYGh/9oACAEBEQE/EPwWHOVZXY7jn5+Ns366gVToPWqhE/iQdmMeymthXP4c6Ih706NQVjOQS10oZLmCXHMEWrZArI2IwQPrBzihbU6nBO7N2NHkd8/H+SYRQg1XCXRxJnmX5aOJrsibuyZ+LqbXDvjN52I6OVUh14HIFzD8N5oq7rqHYuMVlypFPYY1La9AVogpN2eEJRvbypK/Zgask2OilHu6GcfzmU1g+KHqBWxr5+8pwG3sJngIrMVH1xG+6b4f6lYa4nKd+5sJr5uoJMUlTeII6l8fOSgES7gdgmYW6JegAaHPLSGZ/d7aZfBc2K7ZfrQ0ubAUavgsNkANy8cC9ox0e4Ml2u8n/F3BWgsdRXPtE8RBOpgAxA9fVfWb8+3ANmYgXj7xqJggu9oh2U/jB9iUlzJmLIK2tFjuKdlAu0q03BKXg0sYgySgNJcRbAhQShj8Fd61XB//xAAqEAEBAAIBAwIFBAMBAAAAAAABEQAhMUFRYXGBECAwkaFAwdHwULHx4f/aAAgBAAABPxD/AAOuqHBt757fZhMIVD9vJ+2Gpj0V+0OElqoBA8nnWeQ9m51x5/wnS9O+JDAQu7BmsrB0iwCFBAkTrYWPhvnNWGTdR/8AeS51Cufawvzmun1OQdKTWbgdMBRWtHXKTgLQEdWBLIIQjw0yb/wgE6Ac0KH5E9nGMl68HK2LXAFAowLYc638mgz64/mxE4QTe8iBi8wpFXRDpgUZhoB4Shbjz/gweUK6Emx74kWuXj1eyjS0tSDNwFzxEL1C82I6QokCuMGl+HVnBIEBkOqDBSlOuLITSqrqLQnJR1vZXlGnf/B0MpdntgBgDdHXEWOtXkhzjUCCBClIF0VPFhM8Pp8arB9cRXcSUA3mVVOAGgx4Lb1rf8JrWeRuEeRQ4dwbh4+WbyovM+Fybw5Ec7NTrJ3JetcSkqzq9f8ADJAWwtu69n3Y3VNyEGoKIXYc/AF4JmmyACMt0ggpGI4aRmzXRFtiJZcaCQeWQexpTby51zr+tnzzjf8Azq5rrUL7CeQElNHhWtq93Irp1iGS6kdnelWpfcYJDl7b/s9p7Zxx/H6ueT3c9vzntnuyL/zKmG9v++crk4yvxjs7S8Qfft28ZQEWiCjHRBQSgHjEl21p9cEoTd9yaIJLutkQjU7SopQU07a9F1wDkdP1Pes9dYazUMAPLrpivlIVEmkfZxIWAveiQe+RS1xkIQ5oAB77YgpnGx6Mn1D2wyIRScs5Aj2c4Z8oBfusWqDvzWwg0FBK8OKwTaq9OY9OQxAolTjW/dD2zdHFEE9nGBglVwHr9/tiqFgQLQuUkTagOhgnL1ksf5xFtYCFgMiG1BRuBTrq1paQDuXnHm39NPgqamOnaHTej74DUabt4V6FZtAdKZZzFlPc2Brb6E5IkMBFpJVyvUXq5UxOXOEev+858+5nTAWxwyoiC5lbB5PQcvR5lR1KAex73BJGeUsCnR3q9s31IT3wW0MA+jG4tSgBQYQ1TbOJowpZVjShJVXkduL+ojEZNhIqDXUWbvISQqmtvFd1r1zlx5/STV6ZIoUWju8f9wVqoWdlI/fC4D3OvUwuHirHdmvDvIfTxncdXDnW9XObIOjY8y1PPAAAAFBz0+CfIkZu+DEq3VdSkeeYIoFEJcYwxOwyeADRR5y5zl72XzvEjRRx+k8d7oWK2b6OWdtC++G6Bd0JjcJh5abWtIiiKTEygYthUiuwxeSMRx5Tv+l4PO9e1y0gAVk7rhACoQRgYqUC7NA7iVRDu8B06tR7wDCDnjjCD9sNAfQ0JLbN6j1DR5GSZA/NM0qsr2eAw4+QFABk44vIBy6IxPjfQSLTwKHcPXHbBl1uVI5tknJWYK8hRakVeneT7mdfqT51gqkOayYg/AJ5qnQo9XJRARf2SMWKOUAqVTbnDPRm86fRT3B/QlqdtXuzp8pM0ioSIdRGe+Fdf2yIprwE4Ji9Qd/7/fbCRtCBeliGmgBlLjz59b9Ka51m5xk6XfbCjGvcbgd1msgxUg7dDffAFKEPFO+IpMlNfgcOZkxtJGbmj1m8EIVax0JrS6JYVSAGe2RkZPG76c50+ikYiHrl+Vx0+giZTCLCvOlPObCrj2Qf3zr8/Y6vTBc9DsT26rhTYdcbGKnI8LMITeItlU0DkCO11gyOF2TgBcCa5Ou+i+0kBEXR02IWjiWaUOWWH0tbTcmB8EphoqiV40hrfOIxmcxPkIfZzeXEggSwV4kFpNOcUEMB0TFSPHG8QicX6wOvULzZriEM141SK2I7Q0yusA3KI+/OEn8rC2RTu9iVPZ6YA2YCbnAoJ5+2KeFY1xrtT1jmNDJZLYiaRN3OS/QmBOshArvofRhwfD0ZPn+c6fIwknoZJEQA6o8HOViPqlontggBex4+egkAKq8evtvHF5FaNjtVHU3FCyKkYdUejBr0d/OC3o8f398ODdnfpnT4wZHZzhr8EB5bQvCFQ3lV8TCY9CDBAbpjdvxv4QFQ8K9DCShbpwHS9LtdmjS4d5M6Z1US3Zl2+2HYntH2epkDIbS1FaYOEQlvBKoQTg9H0OLD0aNqVUGjyGdPgix9eCxnhKvQrhGxEzmiOxrYnc1bhLKnqiIq92Nku78virwFBPUA9jONT5rhRHDQNEJBdRRgp4JiVVUe6pfK5AGdM6fBJdNOhvIqR+2Q7IEE0hQLrW4R03kzNKBmo8wAXonOUWUGIGHAsBqjRh0GY5oVLSmBSdLhsRFcqKpogIa0GyHT5VKrs7lE4a+Ykd4bA0OnOes15rOD09fpM52whHQsSGnaPTFKxT6dLETg37hiFJwSpcOgsDoPydc8JUmGq8bj7YcfMk7V0TX8kLdi/OdP5+SBfGUxcB1ARHR1joIog7O+kBgptQyhi4fXFFva07U1VzeDnEV4XyYihBQSFN7fz7qMQROnVio7lf3WfjfNu3hJl2J3njYlOS6JtwIB2+lQSHvm+nZ2euHB8pHgP5in5Q9st38yzjIwDFKisQAdIzDR/wAy6+BjqfTCSMIloFiiI6LKALAxrBN1+A0ffvnKnHbnOuXTMuUA5fH8Y1SxIjDxIwCRSdhjCrZETaHozxwfqTqAZtvOjt1vL51THY0aTuf9BuYFC74yTn1xpoxJhVLoAFXDRNB0CaBACkIoerCy7YkAEgQACAAEN48/A5zhPIG1A2faYvHnUT4GguvnaduUDlpxwPHu+Sezmi+L6GclOPpctjkf0+hM1tzYTMwANLygrxDuJnvfPf5ga7ey9Q6jr7ZD1rExJMQBBQNQwCmU6AdhvsOOcYTZVGU41hYOD2lbPKVdGl56d818lrkZAkDV2kPKccmgdvNwMNC0TU3SkHY4TOD0+CTnAnXT02LsFLwMOtRqC0BpzZZPOOD9/ozvfHXGVJqwmiO9pBYUdwco/Rkxe2DNLYQcIFLf80NPFs+Yk5/OUgEJHQfqLta6CMu5Db11NvHb0DKrXl+bedcpb18N56fn5qGlWdlp+Jioc1IBdXq/2uBAO3w5cG+cjeH6l1pEQh0HpmixUxNvWHUpaclAAHBr5d+QkQ/OVe31STRd+2DXWhn7qwMolDgR0NF9DJHCgbtELxdH7cBTNZS0eXUAOISSYxSAgINs37tEcDacHp8qKMEolevQF1TQfsLlRwgG4bOS7K8q4AM5eM6/NUmD8/GWiunkBSwAFW8HOkwIF3x75dfIjec6fNaxIJcQHURHl10Ad+C67f3/AMxWMVrewHONNj9A+dA5YhJy8rsBtWAbcGzku61GUXQ0B2EEXoPAcPcw0H7ZfgjEmcvMME5zB1lvceUUQkwCdNtyLdABDSlWFQbUiX78Yt55zr9a4dVZRoLp9CfxgaLDAFRQt1lZp6ng+mV0q7YFUYHAcdm6aiAk+XT8TBgNLAaLYJQOg1u4ybILfchjmor5c20C7bnFw4Mnw5Dd9MA0W6IOq3jDz3p0+ARredscDlUoKmzYToXkE9bhUQnbH28GjXcvOIeOfP6HWEPfn+/bFGm6ClpAiSgrIlcBh473BoPT6j4fBGP8ANNFQYACq6AzVYL/AFuHXLnvQIiKkg7CjSdzKg7jpCEEiiDeFo4I2hnIk2qOY1dIBjIRMhAnd/54xnQ69d4tf0geYIhUUh0ih5NTr1jiUKuw7k6WoRwACLZ9Od+OfGD4iCXupgZ0AmAuxRvi3xi8Xl41YiBE3vlw4ECFnhS9agbTVA4akq2URIirgdUvsqQ7VN23om8bE2mLkTnsEYAXplkvbFxTeWSxUCzCFYu8Eo/pudbmJGhGk8IBpSFYw2YKx3VJGpBYoRzAujzsghcaHuxiSHQmCLI1485MHo/B6MuT+2JF2njebG1PGPhUrU5F1fEuLZ4RdOG2Oqdbrimk4QBaGKQXfuARnVx8f2fjK9XDyTukPfdwyHsQwwAqASo9kAcpb8d4glW6DSlAIDkc2XZnxkPRn2Eftj+mSmTSAiRymmqyiESKkUeiLx1JwSsJV1uggSw2E3KSY5UEK3Uulp+E6GcKUPApMM1OvRsR+4Gd+R9F1Z0XhdO+FZJtaQC2RHUKlIRO1bCl6gDkQ7jxgZnT2AUYAAhSXYZujIcDQhB3vVutOxDemx48EPci3HHLbH6qoPdwjEWJXVRMN0IWi4uqpnBrsilQXYMEcaP7v1wIB8LzX7F0/nLMW48AyRR5P0+mNJs++8KCIQII+omVt9wQfMOuMHEeX84oCU0QE54cbVQPSjqKAXRdhuCRXVQtEFXeHS0tTDpw9P8AXwW2O38ZoEAxVozpM4Gg8dsgQ65Nfv8AI3Re1lpx/tmgQBJ4n850n6xIXxc1V9Pvp/WqXQ1hxhx9C/ERmFvQRk8z25wQTf5dmJq/pZk+XlyjlkuYC6vLiLl3fANdRS9J5OCh9Fd8ZcuJGFKCog9GLvFUBMJyvbSUU96zCL7TSidJp/8AODCCiTm+M9ee36GYx1+/985wUHN6GznKJTZ4+QLjNl136Hvhsff6Vc8g4/PDs+rAADwAZ0Lz89y51+E+Fa3ay9jLx43HqrUKVVFHlYwH5GsC+Wiq2kQeJT5cWv6DkeWZAaVspYQcN6MXpcTLlgN3y3q13RMB6OEOruEXF4dyacYyIuZhy+vPxFk5oTzkFzaxBzZtm7CEa6cW+uAQIiFYFqonczcEv8gJuUNqRdYmgHbXxvxuX4zLkfg5w5QJOLGInoK9x2IiiQwirChdLBlnTRdZyuvb6yQx1EGqjoJOAJ7L4o5MNJDZ9avglVvKfSyeymuQC6OdDqiRZqNtoV8qvdVu85GOMU6Ja61/f9ZICNfuajsBb1dAKzEzo9kMNroNwaK6VVk1N+MOMm/hfjfhMnw3ntk8de2ehznfTLnnISxmKO728Dmt+jF/5a1B6Pp9Ym6weKftiiQ/wEBhd9OmcAPzgb5WoaYdw+XVjpgTwa+Doq6Cr2MWtsIrbesVhXobdMwG7DTwo8zyPoQDBfC6y5c6Zu5ufA3lznKGUmWuNi6UkEAjKF3xkDEJXOqV4o54GWGbd5udLgAGagCKPrQfCDkbaLt74c4efqMrcE0VAdV2YuvKnKcX2MAPtnW6gmTGmrH3nY5p4ec3ZN4A9BbtB4hL69BuBK+eDyOqbfXsZ0+HX4TBRm4QVQpohd8DmoQfScnuJ8DJnj4WYhZfGb74Yk6QnUTHmj7YVuREgiHir3xps051zluAQiM8uQey49qhV6HB93NGH1YOLZ1I3nt9s1gPI6y2iRbhAfcTVBS3AS+YRDxJ3MXu4ho5gE7wVmvOdT3KY5V4WjxwHvTvk+HX4qFgYsrR5LchgVbIevOTplwvOUJolbE2GkmUk61DNZuP8bXSCkQ03rEvCxSyjcJFLHoDHjBwoSvXZp/cYVXre9ufjZ0fLKZUVxGRqFrJ9h+2aLvIpD/ZfWCGeFb/ALPbkTB0afgpse+IJw1SsLOqtR1O9liMPOkL5evrfh0x+Ork5euVWBtgLSdgL7e+dM75GYSoQc8iOyIfcZ0xlfYxC1R5v7dcUnGPjLB0OKQg+eD3wmY8BADoZ/shmw0l3syLdMyxaLsrMvb80xgAbHvb/K+shHYzHgVyeJvAwTIvJBR7tb5DEYG4MvBIHwlywthKTqY6eADC8FAudbqWeIHolpw6Zd9CEPCJ98Am2AhiVm8n35yUpJ3yJ/G8BrnKGx/AJT34POnXKBrpi/fIOL+72wJAWHsITqG8aLvDTZix1l6d8Asm9otDUPQR3MON4gq0nfFd+oeDjBcJTjcuac83l9kMHs4BEG5g8ARPEHnKSaixO5vr3fVzRaqOZ2qgzjjqi8NsMROe4RFhHsKAz7Z0+rr784o5hED9xwvVasR6bh9n2wRMGghvQBlJUqBO6CrgUtLuciqsQd9vSIdxfU0kkGgQQ10mHbYug9IdGIKeVD1Nv2cSNIJHvU4ntrVw9+J6/bATXhqOoDq78GCdiYFDpEHKKTASe4e3DBxN/h9sTElk847QRDSdF1KvI5CC4SC5iMKTsFxrI5t9yjTquEJV4z6ZXqZTDgZFrRtgCHoeDIIB7AF/1kUqiEiJWyLq8qgtzOYAHrGoEprbg/qAQA6Q6ZAQ72w3vt++a7me5/fSZYS8dd/64/QazXw1c4bjTyHfZfxnWkM1WG+jjE/neXyw6dM0ENnZzWa457XcwNq1CQ8n/vTGwCZNApnQNKwdcCoHAnoWmhOvfKQyCjgBAUQTuDjnEOpxRaV3Dzl3nPOUlL4YhI9ZOl84MakIOMTpPfv1y7kYkHhVLtt5t7YWrwBg0QOIazV+TX66M/vHOGwz8fLP8NWVnL+k/9k=;" vertex="1" parent="1">
          <mxGeometry width="352" height="352" as="geometry" />
        </mxCell>
      </root>
    </mxGraphModel>
  </diagram>
</mxfile>
